<mxfile host="app.diagrams.net" agent="Mozilla/5.0 (Windows NT 10.0; Win64; x64) AppleWebKit/537.36 (KHTML, like Gecko) Chrome/130.0.0.0 Safari/537.36" version="25.0.3">
  <diagram name="Trang-1" id="_V2C8Ug86HV9Ebp5Dxmx">
    <mxGraphModel dx="1006" dy="531" grid="1" gridSize="10" guides="1" tooltips="1" connect="1" arrows="1" fold="1" page="1" pageScale="1" pageWidth="827" pageHeight="1169" math="0" shadow="0">
      <root>
        <mxCell id="0" />
        <mxCell id="1" parent="0" />
        <mxCell id="Imhbymcb47lpxVHuTxqJ-3" value="" style="edgeStyle=orthogonalEdgeStyle;rounded=0;orthogonalLoop=1;jettySize=auto;html=1;entryX=0.5;entryY=0;entryDx=0;entryDy=0;" parent="1" source="Imhbymcb47lpxVHuTxqJ-1" target="718YfHh6xq9PhQpOkDIt-1" edge="1">
          <mxGeometry relative="1" as="geometry" />
        </mxCell>
        <mxCell id="Imhbymcb47lpxVHuTxqJ-1" value="Start&amp;nbsp;" style="ellipse;whiteSpace=wrap;html=1;" parent="1" vertex="1">
          <mxGeometry x="100" y="230" width="120" height="80" as="geometry" />
        </mxCell>
        <mxCell id="Imhbymcb47lpxVHuTxqJ-5" value="" style="edgeStyle=orthogonalEdgeStyle;rounded=0;orthogonalLoop=1;jettySize=auto;html=1;entryX=0.5;entryY=0;entryDx=0;entryDy=0;exitX=0.5;exitY=1;exitDx=0;exitDy=0;" parent="1" source="718YfHh6xq9PhQpOkDIt-1" target="Imhbymcb47lpxVHuTxqJ-10" edge="1">
          <mxGeometry relative="1" as="geometry">
            <mxPoint x="160" y="620" as="targetPoint" />
          </mxGeometry>
        </mxCell>
        <mxCell id="Imhbymcb47lpxVHuTxqJ-9" style="edgeStyle=orthogonalEdgeStyle;rounded=0;orthogonalLoop=1;jettySize=auto;html=1;entryX=0.5;entryY=0;entryDx=0;entryDy=0;exitX=0.5;exitY=1;exitDx=0;exitDy=0;" parent="1" source="718YfHh6xq9PhQpOkDIt-2" target="Imhbymcb47lpxVHuTxqJ-8" edge="1">
          <mxGeometry relative="1" as="geometry">
            <mxPoint x="160" y="830" as="sourcePoint" />
          </mxGeometry>
        </mxCell>
        <mxCell id="Imhbymcb47lpxVHuTxqJ-8" value="End;" style="ellipse;whiteSpace=wrap;html=1;" parent="1" vertex="1">
          <mxGeometry x="100" y="990" width="120" height="80" as="geometry" />
        </mxCell>
        <mxCell id="Imhbymcb47lpxVHuTxqJ-12" value="" style="edgeStyle=orthogonalEdgeStyle;rounded=0;orthogonalLoop=1;jettySize=auto;html=1;entryX=0;entryY=0.5;entryDx=0;entryDy=0;" parent="1" source="Imhbymcb47lpxVHuTxqJ-10" target="Imhbymcb47lpxVHuTxqJ-17" edge="1">
          <mxGeometry relative="1" as="geometry">
            <mxPoint x="340" y="640" as="targetPoint" />
          </mxGeometry>
        </mxCell>
        <mxCell id="Imhbymcb47lpxVHuTxqJ-13" style="edgeStyle=orthogonalEdgeStyle;rounded=0;orthogonalLoop=1;jettySize=auto;html=1;exitX=0.5;exitY=1;exitDx=0;exitDy=0;entryX=0.582;entryY=0.04;entryDx=0;entryDy=0;entryPerimeter=0;" parent="1" source="Imhbymcb47lpxVHuTxqJ-10" target="718YfHh6xq9PhQpOkDIt-2" edge="1">
          <mxGeometry relative="1" as="geometry">
            <mxPoint x="160" y="770" as="targetPoint" />
            <Array as="points">
              <mxPoint x="160" y="725" />
              <mxPoint x="161" y="725" />
              <mxPoint x="161" y="772" />
            </Array>
          </mxGeometry>
        </mxCell>
        <mxCell id="Imhbymcb47lpxVHuTxqJ-10" value="N&amp;lt;4" style="rhombus;whiteSpace=wrap;html=1;" parent="1" vertex="1">
          <mxGeometry x="120" y="600" width="80" height="80" as="geometry" />
        </mxCell>
        <mxCell id="Imhbymcb47lpxVHuTxqJ-15" value="True" style="text;html=1;align=center;verticalAlign=middle;resizable=0;points=[];autosize=1;strokeColor=none;fillColor=none;" parent="1" vertex="1">
          <mxGeometry x="105" y="698" width="50" height="30" as="geometry" />
        </mxCell>
        <mxCell id="Imhbymcb47lpxVHuTxqJ-16" value="False" style="text;html=1;align=center;verticalAlign=middle;resizable=0;points=[];autosize=1;strokeColor=none;fillColor=none;" parent="1" vertex="1">
          <mxGeometry x="200" y="618" width="50" height="30" as="geometry" />
        </mxCell>
        <mxCell id="Imhbymcb47lpxVHuTxqJ-23" style="edgeStyle=orthogonalEdgeStyle;rounded=0;orthogonalLoop=1;jettySize=auto;html=1;exitX=1;exitY=0.5;exitDx=0;exitDy=0;entryX=0;entryY=0.5;entryDx=0;entryDy=0;" parent="1" source="Imhbymcb47lpxVHuTxqJ-17" target="Imhbymcb47lpxVHuTxqJ-18" edge="1">
          <mxGeometry relative="1" as="geometry" />
        </mxCell>
        <mxCell id="Imhbymcb47lpxVHuTxqJ-25" style="edgeStyle=orthogonalEdgeStyle;rounded=0;orthogonalLoop=1;jettySize=auto;html=1;exitX=0.5;exitY=1;exitDx=0;exitDy=0;entryX=0.5;entryY=0;entryDx=0;entryDy=0;" parent="1" source="Imhbymcb47lpxVHuTxqJ-17" target="718YfHh6xq9PhQpOkDIt-3" edge="1">
          <mxGeometry relative="1" as="geometry">
            <mxPoint x="320" y="770" as="targetPoint" />
          </mxGeometry>
        </mxCell>
        <mxCell id="Imhbymcb47lpxVHuTxqJ-17" value="N &amp;lt; 6" style="rhombus;whiteSpace=wrap;html=1;" parent="1" vertex="1">
          <mxGeometry x="280" y="600" width="80" height="80" as="geometry" />
        </mxCell>
        <mxCell id="Imhbymcb47lpxVHuTxqJ-24" style="edgeStyle=orthogonalEdgeStyle;rounded=0;orthogonalLoop=1;jettySize=auto;html=1;exitX=1;exitY=0.5;exitDx=0;exitDy=0;entryX=0;entryY=0.5;entryDx=0;entryDy=0;" parent="1" source="Imhbymcb47lpxVHuTxqJ-18" target="Imhbymcb47lpxVHuTxqJ-19" edge="1">
          <mxGeometry relative="1" as="geometry" />
        </mxCell>
        <mxCell id="Imhbymcb47lpxVHuTxqJ-26" style="edgeStyle=orthogonalEdgeStyle;rounded=0;orthogonalLoop=1;jettySize=auto;html=1;exitX=0.5;exitY=1;exitDx=0;exitDy=0;entryX=0.5;entryY=0;entryDx=0;entryDy=0;" parent="1" source="Imhbymcb47lpxVHuTxqJ-18" target="718YfHh6xq9PhQpOkDIt-4" edge="1">
          <mxGeometry relative="1" as="geometry">
            <mxPoint x="454" y="770" as="targetPoint" />
          </mxGeometry>
        </mxCell>
        <mxCell id="Imhbymcb47lpxVHuTxqJ-18" value="N&amp;lt;=8" style="rhombus;whiteSpace=wrap;html=1;" parent="1" vertex="1">
          <mxGeometry x="414" y="600" width="80" height="80" as="geometry" />
        </mxCell>
        <mxCell id="Imhbymcb47lpxVHuTxqJ-27" style="edgeStyle=orthogonalEdgeStyle;rounded=0;orthogonalLoop=1;jettySize=auto;html=1;exitX=0.5;exitY=1;exitDx=0;exitDy=0;entryX=0.5;entryY=0;entryDx=0;entryDy=0;" parent="1" source="Imhbymcb47lpxVHuTxqJ-19" target="718YfHh6xq9PhQpOkDIt-5" edge="1">
          <mxGeometry relative="1" as="geometry">
            <mxPoint x="600" y="770" as="targetPoint" />
          </mxGeometry>
        </mxCell>
        <mxCell id="Imhbymcb47lpxVHuTxqJ-36" style="edgeStyle=orthogonalEdgeStyle;rounded=0;orthogonalLoop=1;jettySize=auto;html=1;exitX=1;exitY=0.5;exitDx=0;exitDy=0;entryX=0;entryY=0.5;entryDx=0;entryDy=0;" parent="1" source="Imhbymcb47lpxVHuTxqJ-19" target="Imhbymcb47lpxVHuTxqJ-33" edge="1">
          <mxGeometry relative="1" as="geometry" />
        </mxCell>
        <mxCell id="Imhbymcb47lpxVHuTxqJ-19" value="N&amp;lt;=9" style="rhombus;whiteSpace=wrap;html=1;" parent="1" vertex="1">
          <mxGeometry x="560" y="600" width="80" height="80" as="geometry" />
        </mxCell>
        <mxCell id="Imhbymcb47lpxVHuTxqJ-28" value="true" style="text;html=1;align=center;verticalAlign=middle;resizable=0;points=[];autosize=1;strokeColor=none;fillColor=none;" parent="1" vertex="1">
          <mxGeometry x="280" y="698" width="40" height="30" as="geometry" />
        </mxCell>
        <mxCell id="Imhbymcb47lpxVHuTxqJ-29" value="True" style="text;html=1;align=center;verticalAlign=middle;resizable=0;points=[];autosize=1;strokeColor=none;fillColor=none;" parent="1" vertex="1">
          <mxGeometry x="405" y="698" width="50" height="30" as="geometry" />
        </mxCell>
        <mxCell id="Imhbymcb47lpxVHuTxqJ-30" value="True" style="text;html=1;align=center;verticalAlign=middle;resizable=0;points=[];autosize=1;strokeColor=none;fillColor=none;" parent="1" vertex="1">
          <mxGeometry x="545" y="698" width="50" height="30" as="geometry" />
        </mxCell>
        <mxCell id="Imhbymcb47lpxVHuTxqJ-31" value="False" style="text;html=1;align=center;verticalAlign=middle;resizable=0;points=[];autosize=1;strokeColor=none;fillColor=none;" parent="1" vertex="1">
          <mxGeometry x="355" y="618" width="50" height="30" as="geometry" />
        </mxCell>
        <mxCell id="Imhbymcb47lpxVHuTxqJ-32" value="False" style="text;html=1;align=center;verticalAlign=middle;resizable=0;points=[];autosize=1;strokeColor=none;fillColor=none;" parent="1" vertex="1">
          <mxGeometry x="495" y="618" width="50" height="30" as="geometry" />
        </mxCell>
        <mxCell id="Imhbymcb47lpxVHuTxqJ-35" style="edgeStyle=orthogonalEdgeStyle;rounded=0;orthogonalLoop=1;jettySize=auto;html=1;exitX=0.5;exitY=1;exitDx=0;exitDy=0;entryX=0.567;entryY=0.053;entryDx=0;entryDy=0;entryPerimeter=0;" parent="1" source="Imhbymcb47lpxVHuTxqJ-33" target="718YfHh6xq9PhQpOkDIt-6" edge="1">
          <mxGeometry relative="1" as="geometry">
            <mxPoint x="740" y="770" as="targetPoint" />
          </mxGeometry>
        </mxCell>
        <mxCell id="Imhbymcb47lpxVHuTxqJ-33" value="N&amp;lt;=10" style="rhombus;whiteSpace=wrap;html=1;" parent="1" vertex="1">
          <mxGeometry x="700" y="600" width="80" height="80" as="geometry" />
        </mxCell>
        <mxCell id="Imhbymcb47lpxVHuTxqJ-37" value="False" style="text;html=1;align=center;verticalAlign=middle;resizable=0;points=[];autosize=1;strokeColor=none;fillColor=none;" parent="1" vertex="1">
          <mxGeometry x="645" y="608" width="50" height="30" as="geometry" />
        </mxCell>
        <mxCell id="Imhbymcb47lpxVHuTxqJ-38" value="True" style="text;html=1;align=center;verticalAlign=middle;resizable=0;points=[];autosize=1;strokeColor=none;fillColor=none;" parent="1" vertex="1">
          <mxGeometry x="675" y="698" width="50" height="30" as="geometry" />
        </mxCell>
        <mxCell id="718YfHh6xq9PhQpOkDIt-1" value="Nhập N điểm" style="shape=parallelogram;perimeter=parallelogramPerimeter;whiteSpace=wrap;html=1;fixedSize=1;" vertex="1" parent="1">
          <mxGeometry x="100" y="470" width="120" height="60" as="geometry" />
        </mxCell>
        <mxCell id="718YfHh6xq9PhQpOkDIt-2" value="Không Đạt" style="shape=parallelogram;perimeter=parallelogramPerimeter;whiteSpace=wrap;html=1;fixedSize=1;" vertex="1" parent="1">
          <mxGeometry x="100" y="770" width="120" height="60" as="geometry" />
        </mxCell>
        <mxCell id="718YfHh6xq9PhQpOkDIt-10" style="edgeStyle=orthogonalEdgeStyle;rounded=0;orthogonalLoop=1;jettySize=auto;html=1;exitX=0.5;exitY=1;exitDx=0;exitDy=0;entryX=1;entryY=0.5;entryDx=0;entryDy=0;" edge="1" parent="1" source="718YfHh6xq9PhQpOkDIt-3" target="Imhbymcb47lpxVHuTxqJ-8">
          <mxGeometry relative="1" as="geometry" />
        </mxCell>
        <mxCell id="718YfHh6xq9PhQpOkDIt-3" value="Trung Bình" style="shape=parallelogram;perimeter=parallelogramPerimeter;whiteSpace=wrap;html=1;fixedSize=1;" vertex="1" parent="1">
          <mxGeometry x="260" y="770" width="120" height="60" as="geometry" />
        </mxCell>
        <mxCell id="718YfHh6xq9PhQpOkDIt-9" style="edgeStyle=orthogonalEdgeStyle;rounded=0;orthogonalLoop=1;jettySize=auto;html=1;exitX=0.5;exitY=1;exitDx=0;exitDy=0;entryX=1;entryY=0.5;entryDx=0;entryDy=0;" edge="1" parent="1" source="718YfHh6xq9PhQpOkDIt-4" target="Imhbymcb47lpxVHuTxqJ-8">
          <mxGeometry relative="1" as="geometry" />
        </mxCell>
        <mxCell id="718YfHh6xq9PhQpOkDIt-4" value="Khá&amp;nbsp;" style="shape=parallelogram;perimeter=parallelogramPerimeter;whiteSpace=wrap;html=1;fixedSize=1;" vertex="1" parent="1">
          <mxGeometry x="394" y="770" width="120" height="60" as="geometry" />
        </mxCell>
        <mxCell id="718YfHh6xq9PhQpOkDIt-8" style="edgeStyle=orthogonalEdgeStyle;rounded=0;orthogonalLoop=1;jettySize=auto;html=1;exitX=0.5;exitY=1;exitDx=0;exitDy=0;entryX=1;entryY=0.5;entryDx=0;entryDy=0;" edge="1" parent="1" source="718YfHh6xq9PhQpOkDIt-5" target="Imhbymcb47lpxVHuTxqJ-8">
          <mxGeometry relative="1" as="geometry" />
        </mxCell>
        <mxCell id="718YfHh6xq9PhQpOkDIt-5" value="GIỏi" style="shape=parallelogram;perimeter=parallelogramPerimeter;whiteSpace=wrap;html=1;fixedSize=1;" vertex="1" parent="1">
          <mxGeometry x="540" y="770" width="120" height="60" as="geometry" />
        </mxCell>
        <mxCell id="718YfHh6xq9PhQpOkDIt-7" style="edgeStyle=orthogonalEdgeStyle;rounded=0;orthogonalLoop=1;jettySize=auto;html=1;exitX=0.5;exitY=1;exitDx=0;exitDy=0;entryX=1;entryY=0.5;entryDx=0;entryDy=0;" edge="1" parent="1" source="718YfHh6xq9PhQpOkDIt-6" target="Imhbymcb47lpxVHuTxqJ-8">
          <mxGeometry relative="1" as="geometry" />
        </mxCell>
        <mxCell id="718YfHh6xq9PhQpOkDIt-6" value="Xuất Sắc" style="shape=parallelogram;perimeter=parallelogramPerimeter;whiteSpace=wrap;html=1;fixedSize=1;" vertex="1" parent="1">
          <mxGeometry x="670" y="770" width="120" height="60" as="geometry" />
        </mxCell>
      </root>
    </mxGraphModel>
  </diagram>
</mxfile>
